<?xml version="1.0" encoding="utf-8"?>
<!-- Generator: Adobe Illustrator 16.0.0, SVG Export Plug-In . SVG Version: 6.00 Build 0)  -->
<!DOCTYPE svg PUBLIC "-//W3C//DTD SVG 1.1//EN" "http://www.w3.org/Graphics/SVG/1.1/DTD/svg11.dtd">
<svg version="1.1" id="logo" xmlns="http://www.w3.org/2000/svg" xmlns:xlink="http://www.w3.org/1999/xlink" x="0px" y="0px"
	 width="1680px" height="528px" viewBox="0 269.5 1680 528" enable-background="new 0 269.5 1680 528" xml:space="preserve">
<g id="acs">
	<rect x="939.067" y="308.943" fill="#D21F43" width="573.326" height="303.109"/>
	<line fill="none" stroke="#000000" stroke-miterlimit="10" x1="195.573" y1="612.053" x2="1512.394" y2="612.053"/>
	<g>
		<path d="M251.705,378.271h34.86l44.905,170.758h-28.361l-10.438-41.754h-50.026l-11.029,41.754h-28.361L251.705,378.271z
			 M288.141,485.413l-19.695-84.099h-0.394l-20.286,84.099H288.141z"/>
		<path d="M444.914,487.776v3.545c0,30.922-12.407,60.858-52.586,60.858c-42.936,0-56.328-27.771-56.328-88.629
			c0-60.857,13.393-88.628,56.722-88.628c48.451,0,51.405,35.845,51.405,53.57v3.151h-27.18v-2.954
			c0-15.756-4.727-33.876-24.422-33.285c-20.089,0-29.149,12.408-29.149,67.358c0,54.949,9.06,68.933,29.149,68.933
			c22.649,0,25.407-25.406,25.407-41.163v-2.954h26.982V487.776z"/>
		<path d="M565.449,487.776v3.545c0,30.922-12.408,60.858-52.586,60.858c-42.936,0-56.329-27.771-56.329-88.629
			c0-60.857,13.394-88.628,56.723-88.628c48.45,0,51.404,35.845,51.404,53.57v3.151h-27.18v-2.954
			c0-15.756-4.727-33.876-24.422-33.285c-20.089,0-29.148,12.408-29.148,67.358c0,54.949,9.06,68.933,29.148,68.933
			c22.649,0,25.407-25.406,25.407-41.163v-2.954h26.982V487.776z"/>
		<path d="M580.812,378.271h92.173v23.044H607.99v47.269h61.253v23.043H607.99v54.556h66.964v23.043h-94.143V378.271z"/>
		<path d="M713.36,496.245v4.333c0,20.877,9.06,31.315,27.967,31.315c17.135,0,25.801-12.211,25.801-24.816
			c0-17.923-9.06-25.801-24.422-30.33l-18.711-6.5c-24.815-9.65-35.648-22.452-35.648-46.874c0-31.118,21.074-48.254,52.98-48.254
			c43.724,0,48.253,27.18,48.253,44.905v3.742h-27.179v-3.545c0-15.56-6.894-24.619-23.832-24.619
			c-11.619,0-23.043,6.499-23.043,24.619c0,14.574,7.484,22.059,25.604,28.952l18.316,6.696
			c24.226,8.666,34.664,21.664,34.664,45.102c0,36.239-22.059,51.404-56.328,51.404c-42.345,0-51.799-28.164-51.799-52.192v-4.136
			h27.377V496.245z"/>
		<path d="M833.697,496.245v4.333c0,20.877,9.06,31.315,27.968,31.315c17.135,0,25.801-12.211,25.801-24.816
			c0-17.923-9.061-25.801-24.422-30.33l-18.711-6.5c-24.816-9.65-35.648-22.452-35.648-46.874c0-31.118,21.074-48.254,52.98-48.254
			c43.723,0,48.253,27.18,48.253,44.905v3.742h-27.18v-3.545c0-15.56-6.894-24.619-23.831-24.619
			c-11.62,0-23.043,6.499-23.043,24.619c0,14.574,7.484,22.059,25.604,28.952l18.316,6.696
			c24.225,8.666,34.664,21.664,34.664,45.102c0,36.239-22.059,51.404-56.328,51.404c-42.346,0-51.799-28.164-51.799-52.192v-4.136
			h27.376V496.245z"/>
		<path fill="#FFFFFF" d="M1091.901,487.776v3.545c0,30.922-12.408,60.858-52.586,60.858c-42.936,0-56.328-27.771-56.328-88.629
			c0-60.857,13.393-88.628,56.722-88.628c48.45,0,51.405,35.845,51.405,53.57v3.151h-27.18v-2.954
			c0-15.756-4.727-33.876-24.422-33.285c-20.09,0-29.149,12.408-29.149,67.358c0,54.949,9.06,68.933,29.149,68.933
			c22.649,0,25.406-25.406,25.406-41.163v-2.954h26.982V487.776z"/>
		<path fill="#FFFFFF" d="M1103.325,463.748c0-60.858,17.135-88.629,56.328-88.629s56.328,27.771,56.328,88.629
			s-17.135,88.628-56.328,88.628S1103.325,524.606,1103.325,463.748z M1188.999,462.96c0-57.313-12.999-67.357-29.149-67.357
			c-16.149,0-29.148,10.045-29.148,67.357c0,58.889,12.999,68.934,29.148,68.934C1176,531.894,1188.999,521.849,1188.999,462.96z"/>
		<path fill="#FFFFFF" d="M1236.858,378.271h48.45c53.57,0,60.267,34.86,60.267,85.28s-6.696,85.28-60.267,85.28h-48.45V378.271z
			 M1264.037,528.545h22.453c22.452,0,31.709-14.771,31.709-64.797c0-48.057-8.075-64.797-31.709-64.797h-22.453V528.545z"/>
		<path fill="#FFFFFF" d="M1366.059,378.271h92.174v23.044h-64.994v47.269h61.252v23.043h-61.252v54.556h66.963v23.043h-94.143
			V378.271z"/>
	</g>
	<g>
		<path fill="#D21F43" d="M0,462.566l129.397-57.707v22.059l-103.4,45.299l103.4,45.299v22.059L0,481.474V462.566z"/>
	</g>
	<g>
		<path fill="#D21F43" d="M1680,481.474l-129.397,57.707v-22.059l103.4-45.299l-103.4-45.299v-21.862L1680,462.566V481.474z"/>
	</g>
	<g>
		<path d="M243.827,680.986c0-4.924-1.182-8.666-3.348-11.424c-2.364-2.757-5.909-4.136-10.833-4.136c-2.363,0-4.53,0.394-6.5,1.182
			c-1.772,0.788-3.348,1.772-4.727,2.954c-1.182,1.379-2.167,2.758-2.955,4.53c-0.591,1.772-0.985,3.545-0.985,5.515
			c0,3.938,0.985,6.894,2.757,9.06c1.97,2.167,4.333,3.939,7.09,5.121c2.757,1.379,5.909,2.363,9.257,3.348
			c3.348,0.985,6.5,2.167,9.257,3.742c2.757,1.576,5.121,3.545,7.09,6.303c1.969,2.561,2.757,6.303,2.757,10.832
			c0,3.939-0.591,7.287-1.772,10.045c-1.182,2.954-2.758,5.317-4.924,7.287c-2.167,1.97-4.53,3.349-7.484,4.333
			s-6.105,1.379-9.848,1.379c-7.484,0-13.196-1.97-17.135-5.909c-3.939-3.938-5.909-9.848-5.909-17.528v-2.363h7.09v2.954
			c0,5.121,1.379,9.257,3.939,12.211c2.561,3.151,6.5,4.53,11.817,4.53c5.121,0,9.06-1.379,12.211-3.939s4.727-6.696,4.727-12.211
			c0-2.954-0.591-5.317-1.576-7.287c-1.182-1.97-2.561-3.545-4.333-4.727c-1.773-1.182-3.742-2.364-6.105-3.151
			c-2.364-0.788-4.727-1.576-7.09-2.363c-2.363-0.788-4.727-1.576-7.09-2.758c-2.363-0.984-4.333-2.363-6.105-3.742
			c-1.772-1.575-3.151-3.545-4.333-5.908s-1.576-5.317-1.576-9.06c0-3.151,0.591-5.909,1.576-8.47
			c0.985-2.56,2.363-4.727,4.333-6.499c1.772-1.772,4.136-3.151,6.893-4.333c2.757-0.984,5.712-1.575,9.257-1.575
			c7.484,0,12.802,1.772,16.347,5.515c3.545,3.742,5.121,9.06,5.121,16.149h-6.893V680.986z"/>
		<path d="M496.516,712.893c-0.591,9.06-2.757,16.149-6.696,20.877c-3.938,4.924-9.65,7.287-16.74,7.287
			c-8.075,0-14.378-3.349-18.711-9.848c-4.333-6.5-6.499-16.938-6.499-31.119c0-14.18,2.166-24.618,6.499-31.118
			c4.333-6.499,10.636-9.848,18.711-9.848c3.938,0,7.483,0.591,10.241,1.97c2.954,1.379,5.317,3.151,7.09,5.317
			c1.772,2.167,3.151,4.728,4.136,7.682c0.788,2.954,1.183,6.105,1.183,9.257h-7.091c0-5.318-1.379-9.848-3.939-13.196
			c-2.757-3.348-6.499-5.12-11.619-5.12c-2.758,0-5.318,0.591-7.682,1.772c-2.166,1.182-4.136,3.151-5.712,5.908
			c-1.575,2.758-2.757,6.303-3.545,10.832c-0.788,4.53-1.182,9.848-1.182,16.348c0,6.499,0.394,11.816,1.182,16.347
			s1.97,8.075,3.545,10.832c1.576,2.758,3.546,4.728,5.712,5.909s4.727,1.772,7.682,1.772c5.12,0,8.862-1.97,11.619-5.908
			c2.758-3.939,4.334-9.454,4.728-16.15h7.09V712.893z"/>
		<path d="M730.298,700.287h-30.922v39.391h-7.09v-79.175h7.09v33.876h30.922V660.7h7.09v79.175h-7.09V700.287z"/>
		<path d="M935.325,700.287c0-14.181,2.166-24.619,6.499-31.118s10.636-9.848,18.71-9.848c8.075,0,14.378,3.349,18.711,9.848
			s6.499,16.938,6.499,31.118s-2.166,24.619-6.499,31.118c-4.333,6.5-10.636,9.848-18.711,9.848c-8.074,0-14.377-3.348-18.71-9.848
			C937.491,724.709,935.325,714.468,935.325,700.287z M942.415,700.287c0,6.5,0.394,11.817,1.182,16.348
			c0.788,4.529,1.97,8.074,3.545,10.832c1.576,2.757,3.545,4.727,5.712,5.908s4.727,1.772,7.681,1.772
			c2.758,0,5.318-0.591,7.682-1.772c2.166-1.182,4.136-3.151,5.711-5.908c1.576-2.758,2.758-6.303,3.546-10.832
			c0.788-4.53,1.182-9.848,1.182-16.348c0-6.499-0.394-11.817-1.182-16.347c-0.788-4.53-1.97-8.075-3.546-10.833
			c-1.575-2.757-3.545-4.727-5.711-5.908c-2.167-1.182-4.727-1.772-7.682-1.772c-2.757,0-5.317,0.591-7.681,1.772
			c-2.167,1.182-4.136,3.151-5.712,5.908c-1.575,2.758-2.757,6.303-3.545,10.833C942.809,688.47,942.415,693.788,942.415,700.287z"
			/>
		<path d="M1183.091,700.287c0-14.181,2.166-24.619,6.499-31.118s10.636-9.848,18.71-9.848c8.075,0,14.378,3.349,18.711,9.848
			s6.499,16.938,6.499,31.118s-2.166,24.619-6.499,31.118c-4.333,6.5-10.636,9.848-18.711,9.848c-8.074,0-14.377-3.348-18.71-9.848
			C1185.257,724.709,1183.091,714.468,1183.091,700.287z M1190.181,700.287c0,6.5,0.394,11.817,1.182,16.348
			c0.788,4.529,1.97,8.074,3.545,10.832c1.576,2.757,3.545,4.727,5.712,5.908c2.166,1.182,4.727,1.772,7.681,1.772
			c2.758,0,5.318-0.591,7.682-1.772c2.166-1.182,4.136-3.151,5.712-5.908c1.575-2.758,2.757-6.303,3.545-10.832
			c0.788-4.53,1.182-9.848,1.182-16.348c0-6.499-0.395-11.817-1.182-16.347c-0.788-4.53-1.97-8.075-3.545-10.833
			c-1.576-2.757-3.546-4.727-5.712-5.908s-4.727-1.772-7.682-1.772c-2.757,0-5.317,0.591-7.681,1.772
			c-2.167,1.182-4.136,3.151-5.712,5.908c-1.575,2.758-2.758,6.303-3.545,10.833C1190.574,688.47,1190.181,693.788,1190.181,700.287
			z"/>
		<path d="M1431.644,660.7h7.09v73.069h32.892v5.908h-39.981V660.7z"/>
	</g>
</g>
</svg>
